<?xml version="1.0" encoding="utf-8"?>
<!-- Generator: Adobe Illustrator 17.0.0, SVG Export Plug-In . SVG Version: 6.00 Build 0)  -->
<!DOCTYPE svg PUBLIC "-//W3C//DTD SVG 1.1//EN" "http://www.w3.org/Graphics/SVG/1.1/DTD/svg11.dtd">
<svg version="1.1" id="Layer_1" xmlns="http://www.w3.org/2000/svg" xmlns:xlink="http://www.w3.org/1999/xlink" x="0px" y="0px"
	 width="32px" height="32px" viewBox="0 0 32 32" enable-background="new 0 0 32 32" xml:space="preserve">
<g id="Layer_1_1_">
</g>
<g id="pin">
	<linearGradient id="SVGID_1_" gradientUnits="userSpaceOnUse" x1="20.3496" y1="26.2367" x2="9.2703" y2="7.0467">
		<stop  offset="0" style="stop-color:#636363"/>
		<stop  offset="0.1474" style="stop-color:#555555"/>
		<stop  offset="0.4228" style="stop-color:#424242"/>
		<stop  offset="0.7046" style="stop-color:#373737"/>
		<stop  offset="1" style="stop-color:#333333"/>
	</linearGradient>
	<path fill="url(#SVGID_1_)" d="M30.769,8.616c0-4.076-3.31-7.384-7.384-7.384c-2.754,0-5.134,1.53-6.404,3.772
		c0-0.002,0.004-0.004,0.004-0.006c-0.339-0.032-0.667-0.102-1.014-0.102c-6.119,0-11.077,4.958-11.077,11.077
		c0,2.333,0.728,4.493,1.958,6.274l-5.62,8.523l8.574-5.596c1.763,1.182,3.883,1.875,6.166,1.875
		c6.119,0,11.077-4.958,11.077-11.077c0-0.319-0.065-0.618-0.094-0.93C29.218,13.779,30.769,11.39,30.769,8.616z M15.971,23.356
		c-4.074,0-7.384-3.31-7.384-7.384c0-4.073,3.31-7.384,7.384-7.384c0.011,0,0.021,0.004,0.029,0.004
		c0-0.007,0.004-0.013,0.004-0.018C16.004,8.587,16,8.601,16,8.616c0,0.642,0.108,1.251,0.259,1.844l-2.928,2.93
		c-1.442,1.442-1.442,3.779,0,5.221c1.442,1.442,3.779,1.442,5.221,0l2.899-2.899c0.609,0.166,1.241,0.282,1.901,0.285
		C23.337,20.06,20.035,23.356,15.971,23.356z M23.384,12.308c-2.033,0-3.692-1.657-3.692-3.692s1.659-3.692,3.692-3.692
		s3.692,1.657,3.692,3.692S25.418,12.308,23.384,12.308z"/>
</g>
</svg>
